<svg id="Layer_1" data-name="Layer 1" xmlns="http://www.w3.org/2000/svg" viewBox="0 0 130.61 481.53"><defs><style>.cls-1{fill:#385459;}.cls-2{fill:#6eaaf2;}.cls-3{fill:#7fb8ef;}.cls-4{fill:#40413c;}.cls-5{fill:#158bed;}.cls-6{fill:#e2e0c9;}.cls-7{fill:#cecdb6;}</style></defs><title>smadkatruck 1</title><path class="cls-1" d="M298.25,13.85a4.63,4.63,0,0,1-4.38,4.85H238.42A4.63,4.63,0,0,1,234,13.85h0A4.63,4.63,0,0,1,238.42,9h55.45a4.63,4.63,0,0,1,4.38,4.85Z" transform="translate(-199.94 -9)"/><path class="cls-2" d="M309.57,32.26c-2.71-6-11.94-19.26-16.82-20.12-3.63-.64-18.48-.33-25.88-.13-7.69-.2-23.13-.51-26.91.13-5.08.86-14.67,14.12-17.49,20.12S218,92.18,218,92.18h95.94S312.28,38.25,309.57,32.26Z" transform="translate(-199.94 -9)"/><path class="cls-3" d="M265.94,16.13s-19.36-1-23.08,1.59-18,38.76-18,38.76l41,1.59Z" transform="translate(-199.94 -9)"/><path class="cls-3" d="M265.94,16.13s19.36-1,23.08,1.59,18,38.76,18,38.76l-41,1.59Z" transform="translate(-199.94 -9)"/><path class="cls-4" d="M307.31,91.32c0,2.84-2.73,5.14-6.09,5.14H230.66c-3.36,0-6.09-2.3-6.09-5.14V58.17c0-2.84,2.73-5.14,6.09-5.14h70.56c3.36,0,6.09,2.3,6.09,5.14Z" transform="translate(-199.94 -9)"/><path class="cls-1" d="M303.76,95.48a5.41,5.41,0,0,1-5.66,5.14H232.59a5.41,5.41,0,0,1-5.66-5.14V62.34a5.41,5.41,0,0,1,5.66-5.14H298.1a5.41,5.41,0,0,1,5.66,5.14Z" transform="translate(-199.94 -9)"/><path class="cls-2" d="M313.89,84.6c-.81-11-22-19.82-47.95-19.82S218.81,73.6,218,84.6h0v67.69h95.94V84.6Z" transform="translate(-199.94 -9)"/><path class="cls-3" d="M232.79,94.36h0c.7-9.59,19.05-17.27,41.59-17.27,13.42,0,25.36,2.73,33,7-2.86-8.66-20.21-15.32-41.19-15.32-22.54,0-40.89,7.68-41.59,17.27h0v59h8.23Z" transform="translate(-199.94 -9)"/><path class="cls-5" d="M292.93,122.14c0,2.84-2.73,5.14-6.09,5.14H252.32c-3.36,0-6.09-2.3-6.09-5.14V105c0-2.84,2.73-5.14,6.09-5.14h34.52c3.36,0,6.09,2.3,6.09,5.14Z" transform="translate(-199.94 -9)"/><path class="cls-3" d="M292.93,119.79c0,2.84-2.73,5.14-6.09,5.14H252.32c-3.36,0-6.09-2.3-6.09-5.14V102.66c0-2.84,2.73-5.14,6.09-5.14h34.52c3.36,0,6.09,2.3,6.09,5.14Z" transform="translate(-199.94 -9)"/><rect class="cls-6" x="5.63" y="143.5" width="119.54" height="338.03"/><rect class="cls-7" x="5.63" y="182.46" width="119.54" height="5.01"/><rect class="cls-7" x="5.63" y="233.56" width="119.54" height="5.01"/><rect class="cls-7" x="5.63" y="284.66" width="119.54" height="5.01"/><rect class="cls-7" x="5.63" y="335.76" width="119.54" height="5.01"/><rect class="cls-7" x="5.63" y="386.86" width="119.54" height="5.01"/><rect class="cls-7" x="5.63" y="437.96" width="119.54" height="5.01"/><polygon class="cls-4" points="26.8 48.74 17.07 44.2 0 44.85 0.43 47.23 16.21 46.15 24.85 52.2 26.8 48.74"/><polygon class="cls-4" points="103.82 48.74 113.54 44.2 130.61 44.85 130.18 47.23 114.41 46.15 105.76 52.2 103.82 48.74"/></svg>