<?xml version="1.0"?>
<svg xmlns="http://www.w3.org/2000/svg" xmlns:xlink="http://www.w3.org/1999/xlink" xmlns:svgjs="http://svgjs.com/svgjs" version="1.1" width="512" height="512" x="0" y="0" viewBox="0 0 512.001 512.001" style="enable-background:new 0 0 512 512" xml:space="preserve" class=""><g><g xmlns="http://www.w3.org/2000/svg"><g><g clip-rule="evenodd" fill-rule="evenodd"><path d="m40.267 504.501h365.936l.001-47.06c-88.046 38.862-189.468-25.269-189.468-123.556 0-98.288 101.421-162.418 189.468-123.555v-142.48h-60.35v-60.35h-305.587z" fill="#ffffff" data-original="#e4e8ed" style="" class=""/><path d="m345.852 7.5v60.35h60.351z" fill="#ffffff" data-original="#e4e8ed" style="" class=""/><path d="m288.095 270.245c-31.533 31.533-34.769 80.64-9.722 115.788l125.51-125.51c-35.148-25.047-84.255-21.811-115.788 9.722z" fill="#ffffff" data-original="#e4e8ed" style="" class=""/><path d="m351.735 213.885c-66.274 0-120 53.726-120 120s53.726 120 120 120c19.611 0 38.123-4.704 54.469-13.046 38.896-19.848 65.531-60.291 65.531-106.954s-26.635-87.106-65.532-106.953c-16.346-8.343-34.858-13.047-54.468-13.047zm-63.64 56.36c31.533-31.533 80.64-34.769 115.788-9.722l-125.51 125.51c-25.047-35.148-21.811-84.255 9.722-115.788zm11.491 137.001 125.51-125.51c25.047 35.148 21.811 84.255-9.722 115.788-31.532 31.533-80.64 34.769-115.788 9.722z" fill="#f47621" data-original="#f492a7" style="" class=""/><path d="m425.096 281.736-125.51 125.51c35.148 25.047 84.255 21.811 115.788-9.722 31.533-31.532 34.769-80.64 9.722-115.788z" fill="#ffffff" data-original="#e4e8ed" style="" class=""/><path d="m40.267 504.501h30c0-165.667 0-331.334 0-497.001h-30z" fill="#f47621" data-original="#9c9c9f" style="" class=""/><path d="m216.735 333.885c0 98.287 101.422 162.418 189.468 123.556v-16.602c-78.68 40.15-174.469-16.616-174.469-106.954 0-90.333 95.792-147.111 174.468-106.953v-16.602c-88.046-38.863-189.467 25.267-189.467 123.555z" fill="#f47621" data-original="#9c9c9f" style="" class=""/><path d="m288.095 270.245c-31.533 31.533-34.769 80.64-9.722 115.788l19.483-19.483c-12.541-32.249-5.799-70.268 20.238-96.305 13.74-13.74 30.817-22.105 48.622-25.101-27.73-4.66-57.222 3.702-78.621 25.101z" fill="#f47621" data-original="#9c9c9f" style="" class=""/><path d="m425.096 281.736-125.51 125.51c19.833 14.133 44.11 19.259 67.166 15.38-13.132-2.207-25.871-7.33-37.167-15.38l106.027-106.026c-2.647-6.807-6.151-13.358-10.516-19.484z" fill="#f47621" data-original="#9c9c9f" style="" class=""/></g><g><path d="m145.266 45h-15v-15h15zm-30 0h-45v-15h45z" fill="#ffffff" data-original="#ffffff" style="" class=""/></g></g><g><path d="m47.767 15h238.086v-15h-253.086v430.114h15z" fill="#f47621" data-original="#000000" style="" class=""/><path d="m398.702 497.001h-350.935v-51.886h-15v66.886h380.935v-40.321h-15z" fill="#f47621" data-original="#000000" style="" class=""/><path d="m83.097 171.967h280.274v15h-280.274z" fill="#f47621" data-original="#000000" style="" class=""/><path d="m83.097 133.701h174.606v15h-174.606z" fill="#f47621" data-original="#000000" style="" class=""/><path d="m272.703 133.701h90.668v15h-90.668z" fill="#f47621" data-original="#000000" style="" class=""/><path d="m83.097 248.5h118.638v15h-118.638z" fill="#f47621" data-original="#000000" style="" class=""/><path d="m144.986 286.767h56.749v15h-56.749z" fill="#f47621" data-original="#000000" style="" class=""/><path d="m113.096 325.034h88.639v15h-88.639z" fill="#f47621" data-original="#000000" style="" class=""/><path d="m83.097 363.3h15v15h-15z" fill="#f47621" data-original="#000000" style="" class=""/><path d="m83.097 286.767h46.889v15h-46.889z" fill="#f47621" data-original="#000000" style="" class=""/><path d="m83.097 325.034h15v15h-15z" fill="#f47621" data-original="#000000" style="" class=""/><path d="m113.096 363.3h88.639v15h-88.639z" fill="#f47621" data-original="#000000" style="" class=""/><path d="m286.405 95.434h76.967v15h-76.967z" fill="#f47621" data-original="#000000" style="" class=""/><path d="m226.404 95.434h15.001v15h-15.001z" fill="#f47621" data-original="#000000" style="" class=""/><path d="m256.404 95.434h15v15h-15z" fill="#f47621" data-original="#000000" style="" class=""/><path d="m338.353 75.351h60.35v123.427h15v-134.034l-64.744-64.744h-48.105v15h37.499zm15-49.744 34.744 34.744h-34.744z" fill="#f47621" data-original="#000000" style="" class=""/><path d="m351.735 206.385c-70.304 0-127.5 57.196-127.5 127.5s57.196 127.5 127.5 127.5 127.5-57.196 127.5-127.5-57.197-127.5-127.5-127.5zm0 240c-62.032 0-112.5-50.467-112.5-112.5s50.467-112.5 112.5-112.5 112.5 50.467 112.5 112.5-50.467 112.5-112.5 112.5z" fill="#f47621" data-original="#000000" style="" class=""/><path d="m330.523 323.278-50.843 50.842c-17.937-31.913-12.749-72.104 13.718-98.572 26.47-26.468 66.661-31.655 98.572-13.718l-50.842 50.842 10.607 10.606 63.718-63.719-7.218-5.144c-18.558-13.225-41.354-19.521-64.189-17.726-23.097 1.815-44.851 11.848-61.255 28.252-16.403 16.403-26.437 38.157-28.251 61.254-1.794 22.835 4.5 45.632 17.726 64.19l5.144 7.218 63.719-63.719z" fill="#f47621" data-original="#000000" style="" class=""/><path d="m431.203 277.384-5.144-7.218-138.043 138.044 7.218 5.144c16.484 11.747 36.31 18.026 56.538 18.026 2.545 0 5.101-.1 7.652-.3 23.097-1.815 44.851-11.849 61.253-28.252 16.404-16.403 26.438-38.157 28.253-61.254 1.794-22.836-4.501-45.632-17.727-64.19zm-21.132 114.837c-26.466 26.467-66.657 31.656-98.571 13.718l112.29-112.29c17.937 31.914 12.748 72.105-13.719 98.572z" fill="#f47621" data-original="#000000" style="" class=""/></g></g></g></svg>
