<?xml version="1.0"?>
<svg xmlns="http://www.w3.org/2000/svg" xmlns:xlink="http://www.w3.org/1999/xlink" xmlns:svgjs="http://svgjs.com/svgjs" version="1.1" width="512" height="512" x="0" y="0" viewBox="0 0 480 480" style="enable-background:new 0 0 512 512" xml:space="preserve" class=""><g>
<g xmlns="http://www.w3.org/2000/svg">
	<g>
		<path d="M448,100h-64V36c0-17.673-14.327-32-32-32H64C46.327,4,32,18.327,32,36v384H8c-4.418,0-8,3.582-8,8v16    c0,17.673,14.327,32,32,32h272c17.673,0,32-14.327,32-32v-88h64c17.673,0,32-14.327,32-32v-72h40c4.418,0,8-3.582,8-8V132    C480,114.327,465.673,100,448,100z M32,460c-8.837,0-16-7.163-16-16v-8h256v8c-0.009,5.619,1.474,11.141,4.296,16H32z M320,36v408    c0,8.837-7.163,16-16,16s-16-7.163-16-16v-16c0-4.418-3.582-8-8-8H48V36c0-8.837,7.163-16,16-16h260.448    C321.569,24.843,320.033,30.366,320,36z M336,340V36c0-8.837,7.163-16,16-16s16,7.163,16,16v288    c0.033,5.634,1.569,11.157,4.448,16H336z M416,132v192c0,8.837-7.163,16-16,16s-16-7.163-16-16V116h36.448    C417.569,120.843,416.033,126.366,416,132z M464,236h-32V132c0-8.837,7.163-16,16-16s16,7.163,16,16V236z" fill="#ffffff" data-original="#000000" style=""/>
	</g>
</g>
<g xmlns="http://www.w3.org/2000/svg">
	<g>
		<rect x="80" y="220" width="184" height="16" fill="#ffffff" data-original="#000000" style=""/>
	</g>
</g>
<g xmlns="http://www.w3.org/2000/svg">
	<g>
		<rect x="128" y="188" width="168" height="16" fill="#ffffff" data-original="#000000" style=""/>
	</g>
</g>
<g xmlns="http://www.w3.org/2000/svg">
	<g>
		<path d="M206.968,110.357c-1.844-5.929-6.032-10.847-11.592-13.613l-15.592-7.8c-3.376-1.686-4.745-5.789-3.059-9.165    c1.156-2.314,3.52-3.777,6.107-3.779h2.336c3.771,0.004,6.828,3.061,6.832,6.832V84h16v-1.168c-0.037-9.94-6.511-18.71-16-21.672    V52h-16v9.16c-11.999,3.732-18.7,16.484-14.968,28.483c1.844,5.929,6.032,10.847,11.592,13.613l15.592,7.8    c3.376,1.686,4.745,5.789,3.059,9.165c-1.156,2.314-3.52,3.777-6.107,3.779h-2.336c-3.771-0.004-6.828-3.061-6.832-6.832V116h-16    v1.168c0.037,9.94,6.511,18.71,16,21.672V148h16v-9.16C203.999,135.108,210.7,122.356,206.968,110.357z" fill="#ffffff" data-original="#000000" style=""/>
	</g>
</g>
<g xmlns="http://www.w3.org/2000/svg">
	<g>
		<rect x="96" y="188" width="16" height="16" fill="#ffffff" data-original="#000000" style=""/>
	</g>
</g>
<g xmlns="http://www.w3.org/2000/svg">
	<g>
		<rect x="80" y="292" width="184" height="16" fill="#ffffff" data-original="#000000" style=""/>
	</g>
</g>
<g xmlns="http://www.w3.org/2000/svg">
	<g>
		<rect x="128" y="260" width="168" height="16" fill="#ffffff" data-original="#000000" style=""/>
	</g>
</g>
<g xmlns="http://www.w3.org/2000/svg">
	<g>
		<rect x="96" y="260" width="16" height="16" fill="#ffffff" data-original="#000000" style=""/>
	</g>
</g>
<g xmlns="http://www.w3.org/2000/svg">
	<g>
		<rect x="80" y="364" width="184" height="16" fill="#ffffff" data-original="#000000" style=""/>
	</g>
</g>
<g xmlns="http://www.w3.org/2000/svg">
	<g>
		<rect x="128" y="332" width="168" height="16" fill="#ffffff" data-original="#000000" style=""/>
	</g>
</g>
<g xmlns="http://www.w3.org/2000/svg">
	<g>
		<rect x="96" y="332" width="16" height="16" fill="#ffffff" data-original="#000000" style=""/>
	</g>
</g>
<g xmlns="http://www.w3.org/2000/svg">
</g>
<g xmlns="http://www.w3.org/2000/svg">
</g>
<g xmlns="http://www.w3.org/2000/svg">
</g>
<g xmlns="http://www.w3.org/2000/svg">
</g>
<g xmlns="http://www.w3.org/2000/svg">
</g>
<g xmlns="http://www.w3.org/2000/svg">
</g>
<g xmlns="http://www.w3.org/2000/svg">
</g>
<g xmlns="http://www.w3.org/2000/svg">
</g>
<g xmlns="http://www.w3.org/2000/svg">
</g>
<g xmlns="http://www.w3.org/2000/svg">
</g>
<g xmlns="http://www.w3.org/2000/svg">
</g>
<g xmlns="http://www.w3.org/2000/svg">
</g>
<g xmlns="http://www.w3.org/2000/svg">
</g>
<g xmlns="http://www.w3.org/2000/svg">
</g>
<g xmlns="http://www.w3.org/2000/svg">
</g>
</g></svg>
