<?xml version="1.0"?>
<svg xmlns="http://www.w3.org/2000/svg" xmlns:xlink="http://www.w3.org/1999/xlink" xmlns:svgjs="http://svgjs.com/svgjs" version="1.1" width="512" height="512" x="0" y="0" viewBox="0 0 512 512" style="enable-background:new 0 0 512 512" xml:space="preserve" class=""><g><g xmlns="http://www.w3.org/2000/svg" id="Outline"><path d="m424 48v208h16v-208a32.036 32.036 0 0 0 -32-32h-272v16h272a16.019 16.019 0 0 1 16 16z" fill="#ffffff" data-original="#000000" style="" class=""/><path d="m88 48a16.019 16.019 0 0 1 16-16h16v-16h-16a32.036 32.036 0 0 0 -32 32v280h16z" fill="#ffffff" data-original="#000000" style="" class=""/><path d="m104 48h16v16h-16z" fill="#ffffff" data-original="#000000" style="" class=""/><path d="m136 48h16v16h-16z" fill="#ffffff" data-original="#000000" style="" class=""/><path d="m168 48h16v16h-16z" fill="#ffffff" data-original="#000000" style="" class=""/><path d="m408 80h-64.679a47.991 47.991 0 0 0 -94.642 0h-144.679v16h144.558a57.561 57.561 0 0 0 10.232 25.669l30.7 42.98a8 8 0 0 0 13.02 0l30.7-42.98a57.569 57.569 0 0 0 10.232-25.669h64.558zm-87.81 32.369-24.19 33.867-24.19-33.867a41.684 41.684 0 0 1 -7.81-24.369 32 32 0 0 1 64 0 41.684 41.684 0 0 1 -7.81 24.369z" fill="#ffffff" data-original="#000000" style="" class=""/><path d="m238.624 216h34.752a24 24 0 0 0 45.248 0h42.752a24 24 0 1 0 0-16h-42.752a24 24 0 0 0 -45.248 0h-34.752a24 24 0 0 0 -45.248 0h-42.752a24 24 0 1 0 0 16h42.752a24 24 0 0 0 45.248 0zm145.376-16a8 8 0 1 1 -8 8 8.009 8.009 0 0 1 8-8zm-88 0a8 8 0 1 1 -8 8 8.009 8.009 0 0 1 8-8zm-168 16a8 8 0 1 1 8-8 8.009 8.009 0 0 1 -8 8zm88 0a8 8 0 1 1 8-8 8.009 8.009 0 0 1 -8 8z" fill="#ffffff" data-original="#000000" style="" class=""/><path d="m112 248h32v16h-32z" fill="#ffffff" data-original="#000000" style="" class=""/><path d="m200 248h32v16h-32z" fill="#ffffff" data-original="#000000" style="" class=""/><path d="m112 288h112v16h-112z" fill="#ffffff" data-original="#000000" style="" class=""/><path d="m104 112h72v16h-72z" fill="#ffffff" data-original="#000000" style="" class=""/><path d="m104 144h56v16h-56z" fill="#ffffff" data-original="#000000" style="" class=""/><path d="m360 112h48v16h-48z" fill="#ffffff" data-original="#000000" style="" class=""/><path d="m360 144h48v16h-48z" fill="#ffffff" data-original="#000000" style="" class=""/><circle cx="296" cy="88" r="16" fill="#ffffff" data-original="#000000" style="" class=""/><path d="m488.687 453.372-58.8-58.8a103.5 103.5 0 0 0 15.313-34.572h18.8v24a16.022 16.022 0 0 1 -5.336 11.924l10.672 11.922a32.049 32.049 0 0 0 10.664-23.846v-264a32.058 32.058 0 0 0 -21.333-30.175l-5.334 15.084a16.033 16.033 0 0 1 10.667 15.091v224h-16.3q.3-3.962.305-8a104 104 0 0 0 -173.335-77.517l10.67 11.922a87.921 87.921 0 1 1 -12.824 14.267l-12.989-9.344a103.278 103.278 0 0 0 -19.527 60.672q0 4.036.305 8h-192.305v-224a16.033 16.033 0 0 1 10.667-15.091l-5.334-15.084a32.058 32.058 0 0 0 -21.333 30.175v264a32.036 32.036 0 0 0 32 32h141.247l-19.2 64h-18.047v16h176v-16h-18.049l-7.89-26.3-15.325 4.6 6.511 21.7h-106.495l19.2-64h55.669a103.8 103.8 0 0 0 114.983 11.919l60.767 60.768a24.971 24.971 0 0 0 35.315-35.315zm-440.687-69.372v-24h194.8a103.7 103.7 0 0 0 19.28 40h-198.08a16.019 16.019 0 0 1 -16-16zm371.806 23.12 8.88 8.88-12.686 12.686-9.565-9.565a104.966 104.966 0 0 0 13.371-12.001zm51.223 72.88a8.911 8.911 0 0 1 -6.342-2.628l-37.374-37.372 12.687-12.687 37.372 37.374a8.97 8.97 0 0 1 -6.343 15.313z" fill="#ffffff" data-original="#000000" style="" class=""/><path d="m344 408a72 72 0 1 0 -72-72 72.081 72.081 0 0 0 72 72zm0-128a56 56 0 1 1 -56 56 56.063 56.063 0 0 1 56-56z" fill="#ffffff" data-original="#000000" style="" class=""/><path d="m344 312v-16a40.045 40.045 0 0 0 -40 40h16a24.028 24.028 0 0 1 24-24z" fill="#ffffff" data-original="#000000" style="" class=""/></g></g></svg>
